<svg width="25" height="25" viewBox="0 0 25 25" fill="none" xmlns="http://www.w3.org/2000/svg">
<path d="M25 12.5C25 5.60708 19.3929 0 12.5 0C5.60708 0 0 5.60708 0 12.5C0 19.3929 5.60806 25 12.5 25C19.3919 25 25 19.3929 25 12.5ZM1.93647 12.5C1.93647 6.67603 6.67505 1.93647 12.5 1.93647C18.325 1.93647 23.0635 6.67603 23.0635 12.5C23.0635 18.325 18.325 23.0635 12.5 23.0635C6.67505 23.0635 1.93647 18.324 1.93647 12.5Z" fill="black"/>
<path d="M11.1636 18.0287L16.0049 13.1875C16.3805 12.8098 16.3805 12.1999 16.0049 11.8222L11.1636 6.98102C10.8015 6.67023 10.2661 6.67023 9.90398 6.98102C9.49827 7.32863 9.45085 7.94054 9.79846 8.34625L13.9522 12.5L9.79841 16.6635C9.42273 17.0411 9.42273 17.6511 9.79841 18.0287C10.176 18.4044 10.7861 18.4044 11.1636 18.0287Z" fill="black"/>
</svg>
