<svg width="25" height="25" viewBox="0 0 25 25" fill="none" xmlns="http://www.w3.org/2000/svg">
<path d="M0 12.5C0 19.3929 5.60708 25 12.5 25C19.3929 25 25 19.3929 25 12.5C25 5.60708 19.3919 0 12.5 0C5.60806 0 0 5.60708 0 12.5ZM23.0635 12.5C23.0635 18.324 18.325 23.0635 12.5 23.0635C6.67505 23.0635 1.93647 18.324 1.93647 12.5C1.93647 6.67505 6.67505 1.93647 12.5 1.93647C18.325 1.93647 23.0635 6.67603 23.0635 12.5Z" fill="black"/>
<path d="M13.8364 6.97131L8.99514 11.8125C8.61946 12.1902 8.61946 12.8001 8.99514 13.1778L13.8364 18.019C14.1985 18.3298 14.7339 18.3298 15.096 18.019C15.5017 17.6714 15.5491 17.0595 15.2015 16.6537L11.0478 12.5L15.2016 8.33655C15.5773 7.95891 15.5773 7.34895 15.2016 6.97131C14.824 6.59563 14.2139 6.59563 13.8364 6.97131Z" fill="black"/>
</svg>
