<?xml version="1.0"?>
<svg xmlns="http://www.w3.org/2000/svg" id="OutLine" viewBox="0 0 512 512" width="512" height="512"><path d="M488,16H24a8,8,0,0,0-8,8V56a8,8,0,0,0,8,8H96V192H72a8,8,0,0,0-7.691,5.8l-32,112A8,8,0,0,0,40,320H64.809a40,40,0,0,0,78.382,0H168a8,8,0,0,0,7.691-10.2l-32-112A8,8,0,0,0,136,192H112V64H248V336H224a8,8,0,0,0-7.691,5.8l-32,112A8,8,0,0,0,192,464h24.809a40,40,0,0,0,78.382,0H320a8,8,0,0,0,7.691-10.2l-32-112A8,8,0,0,0,288,336H264V64H400v96H376a8,8,0,0,0-7.691,5.8l-32,112A8,8,0,0,0,344,288h24.809a40,40,0,0,0,78.382,0H472a8,8,0,0,0,7.691-10.2l-32-112A8,8,0,0,0,440,160H416V64h72a8,8,0,0,0,8-8V24A8,8,0,0,0,488,16ZM104,336a23.959,23.959,0,0,1-22.525-16h45.051A23.96,23.96,0,0,1,104,336Zm25.965-128,27.43,96H50.605l27.43-96ZM256,480a23.959,23.959,0,0,1-22.525-16h45.051A23.96,23.96,0,0,1,256,480Zm25.965-128,27.43,96H202.605l27.43-96ZM408,304a23.959,23.959,0,0,1-22.525-16h45.051A23.96,23.96,0,0,1,408,304Zm25.965-128,27.43,96H354.605l27.43-96ZM480,48H32V32H480Z"/></svg>
