<svg width="80" height="80" viewBox="0 0 80 80" fill="none" xmlns="http://www.w3.org/2000/svg">
<path d="M76.25 2.5H3.75C3.41848 2.5 3.10054 2.6317 2.86612 2.86612C2.6317 3.10054 2.5 3.41848 2.5 3.75V8.75C2.5 9.08152 2.6317 9.39946 2.86612 9.63388C3.10054 9.8683 3.41848 10 3.75 10H15V30H11.25C10.9784 30 10.7143 30.0885 10.4975 30.252C10.2806 30.4155 10.123 30.6452 10.0483 30.9062L5.04828 48.4062C4.99507 48.5923 4.98577 48.7881 5.02113 48.9784C5.05648 49.1686 5.13552 49.3481 5.25202 49.5026C5.36851 49.6571 5.51929 49.7824 5.69247 49.8687C5.86565 49.9551 6.0565 50 6.25 50H10.1264C10.4147 51.4114 11.1816 52.6798 12.2974 53.5908C13.4132 54.5018 14.8095 54.9994 16.25 54.9994C17.6905 54.9994 19.0868 54.5018 20.2026 53.5908C21.3184 52.6798 22.0853 51.4114 22.3736 50H26.25C26.4435 50 26.6344 49.9551 26.8075 49.8687C26.9807 49.7824 27.1315 49.6571 27.248 49.5026C27.3645 49.3481 27.4435 49.1686 27.4789 48.9784C27.5142 48.7881 27.5049 48.5923 27.4517 48.4062L22.4517 30.9062C22.377 30.6452 22.2194 30.4155 22.0025 30.252C21.7857 30.0885 21.5216 30 21.25 30H17.5V10H38.75V52.5H35C34.7284 52.5 34.4643 52.5885 34.2475 52.752C34.0306 52.9155 33.873 53.1452 33.7983 53.4062L28.7983 70.9062C28.7451 71.0923 28.7358 71.2881 28.7711 71.4784C28.8065 71.6686 28.8855 71.8481 29.002 72.0026C29.1185 72.1571 29.2693 72.2824 29.4425 72.3687C29.6156 72.455 29.8065 72.5 30 72.5H33.8764C34.1647 73.9114 34.9316 75.1798 36.0474 76.0908C37.1632 77.0018 38.5595 77.4994 40 77.4994C41.4405 77.4994 42.8368 77.0018 43.9526 76.0908C45.0684 75.1798 45.8354 73.9114 46.1236 72.5H50C50.1935 72.5 50.3844 72.455 50.5575 72.3687C50.7307 72.2824 50.8815 72.1571 50.998 72.0026C51.1145 71.8481 51.1935 71.6686 51.2289 71.4784C51.2642 71.2881 51.2549 71.0923 51.2017 70.9062L46.2017 53.4062C46.127 53.1452 45.9694 52.9155 45.7525 52.752C45.5357 52.5885 45.2716 52.5 45 52.5H41.25V10H62.5V25H58.75C58.4784 25 58.2143 25.0885 57.9975 25.252C57.7806 25.4155 57.623 25.6452 57.5483 25.9062L52.5483 43.4062C52.4951 43.5923 52.4858 43.7881 52.5211 43.9784C52.5565 44.1686 52.6355 44.3481 52.752 44.5026C52.8685 44.6571 53.0193 44.7824 53.1925 44.8687C53.3656 44.9551 53.5565 45 53.75 45H57.6264C57.9146 46.4114 58.6816 47.6798 59.7974 48.5908C60.9132 49.5018 62.3095 49.9994 63.75 49.9994C65.1905 49.9994 66.5868 49.5018 67.7026 48.5908C68.8184 47.6798 69.5854 46.4114 69.8736 45H73.75C73.9435 45 74.1344 44.9551 74.3075 44.8687C74.4807 44.7824 74.6315 44.6571 74.748 44.5026C74.8645 44.3481 74.9435 44.1686 74.9789 43.9784C75.0142 43.7881 75.0049 43.5923 74.9517 43.4062L69.9517 25.9062C69.877 25.6452 69.7194 25.4155 69.5025 25.252C69.2857 25.0885 69.0216 25 68.75 25H65V10H76.25C76.5815 10 76.8995 9.8683 77.1339 9.63388C77.3683 9.39946 77.5 9.08152 77.5 8.75V3.75C77.5 3.41848 77.3683 3.10054 77.1339 2.86612C76.8995 2.6317 76.5815 2.5 76.25 2.5ZM16.25 52.5C15.477 52.4976 14.7237 52.2561 14.0936 51.8084C13.4634 51.3608 12.9872 50.7291 12.7305 50H19.7697C19.5129 50.7291 19.0367 51.3608 18.4065 51.8084C17.7763 52.2561 17.023 52.4976 16.25 52.5ZM20.307 32.5L24.593 47.5H7.90703L12.193 32.5H20.307ZM40 75C39.227 74.9976 38.4737 74.7561 37.8436 74.3084C37.2134 73.8608 36.7372 73.2291 36.4805 72.5H43.5197C43.2629 73.2291 42.7867 73.8608 42.1565 74.3084C41.5263 74.7561 40.773 74.9976 40 75ZM44.057 55L48.343 70H31.657L35.943 55H44.057ZM63.75 47.5C62.977 47.4976 62.2237 47.2561 61.5936 46.8084C60.9634 46.3608 60.4872 45.7291 60.2305 45H67.2697C67.0129 45.7291 66.5367 46.3608 65.9065 46.8084C65.2763 47.2561 64.523 47.4976 63.75 47.5ZM67.807 27.5L72.093 42.5H55.407L59.693 27.5H67.807ZM75 7.5H5V5H75V7.5Z" fill="black"/>
</svg>
