<svg id="Capa_1" enable-background="new 0 0 512 512" height="512" viewBox="0 0 512 512" width="512" xmlns="http://www.w3.org/2000/svg"><g id="XMLID_970_"><g id="XMLID_1079_"><path id="XMLID_1150_" d="m512 290.001c0-17.645-14.355-32-32-32h-406v-208c0-16.542 13.458-30 30-30h8c13.603 0 25.112 9.103 28.776 21.535-17.725 4.923-30.776 21.194-30.776 40.465v12c0 5.523 4.478 10 10 10h64c5.523 0 10-4.477 10-10v-12c0-20.006-14.065-36.779-32.823-40.978-4.244-23.299-24.673-41.022-49.177-41.022h-8c-27.57 0-50 22.43-50 50v208h-22c-17.645 0-32 14.355-32 32 0 14.153 9.239 26.181 22 30.391v33.609c0 35.283 14.35 67.278 37.521 90.455-2.732 2.125-5.863 3.723-9.249 4.63-8.257 2.212-15.157 7.507-19.431 14.91-4.274 7.402-5.409 16.026-3.196 24.282 3.826 14.281 16.788 23.722 30.917 23.722 2.733 0 5.512-.353 8.274-1.094 19.842-5.317 37.023-17.105 49.118-33.509 10.846 2.996 22.261 4.605 34.047 4.605h212c11.786 0 23.201-1.609 34.047-4.605 12.094 16.404 29.276 28.192 49.117 33.509 2.764.741 5.54 1.094 8.274 1.094 14.127-.001 27.091-9.442 30.917-23.721 2.213-8.256 1.078-16.88-3.196-24.283-4.273-7.403-11.174-12.698-19.431-14.91-3.386-.908-6.517-2.505-9.249-4.63 23.17-23.177 37.52-55.172 37.52-90.455v-33.609c12.761-4.21 22-16.238 22-30.391zm-338-208v2h-44v-2c0-12.131 9.869-22 22-22s22 9.869 22 22zm-112.34 409.586c-3.1.83-6.331.403-9.106-1.199-2.775-1.603-4.761-4.19-5.591-7.287-.83-3.096-.404-6.33 1.198-9.105 1.603-2.776 4.191-4.761 7.286-5.591 7.317-1.96 13.998-5.695 19.48-10.798 6.63 4.818 13.738 9.014 21.239 12.506-9.078 10.367-20.997 17.854-34.506 21.474zm402.179-17.592c1.603 2.776 2.028 6.01 1.198 9.107-.83 3.096-2.815 5.684-5.591 7.286s-6.009 2.029-9.106 1.199c-13.508-3.62-25.428-11.106-34.505-21.475 7.501-3.492 14.608-7.688 21.239-12.506 5.482 5.103 12.162 8.838 19.479 10.798 3.095.83 5.683 2.815 7.286 5.591zm16.161-171.994h-178.873c-5.523 0-10 4.477-10 10s4.477 10 10 10h168.873v32c0 59.551-48.448 108-108 108h-212c-59.552 0-108-48.449-108-108v-32h169.127c5.522 0 10-4.477 10-10s-4.478-10-10-10h-179.127c-6.617 0-12-5.383-12-12s5.383-12 12-12h448c6.617 0 12 5.383 12 12s-5.383 12-12 12z"/><path id="XMLID_1184_" d="m256 302.001c-2.63 0-5.21 1.07-7.07 2.93s-2.93 4.44-2.93 7.07 1.069 5.21 2.93 7.07c1.86 1.86 4.44 2.93 7.07 2.93s5.21-1.07 7.069-2.93c1.86-1.86 2.931-4.44 2.931-7.07s-1.07-5.21-2.931-7.07c-1.859-1.86-4.439-2.93-7.069-2.93z"/><path id="XMLID_1204_" d="m407 87.001c5.522 0 10-4.477 10-10v-13c0-5.523-4.478-10-10-10s-10 4.477-10 10v13c0 5.523 4.478 10 10 10z"/><path id="XMLID_1205_" d="m407 156.001c5.522 0 10-4.477 10-10v-12.644c0-5.523-4.478-10-10-10s-10 4.477-10 10v12.644c0 5.523 4.478 10 10 10z"/><path id="XMLID_1206_" d="m435 115.001h13c5.522 0 10-4.477 10-10s-4.478-10-10-10h-13c-5.522 0-10 4.477-10 10s4.478 10 10 10z"/><path id="XMLID_1207_" d="m366 115.001h13c5.522 0 10-4.477 10-10s-4.478-10-10-10h-13c-5.522 0-10 4.477-10 10s4.478 10 10 10z"/><path id="XMLID_1209_" d="m256.127 149.001c5.522 0 10-4.477 10-10v-13c0-5.523-4.478-10-10-10-5.523 0-10 4.477-10 10v13c0 5.523 4.478 10 10 10z"/><path id="XMLID_1210_" d="m256.127 218.001c5.522 0 10-4.477 10-10v-12.644c0-5.523-4.478-10-10-10-5.523 0-10 4.477-10 10v12.644c0 5.523 4.478 10 10 10z"/><path id="XMLID_1211_" d="m284.127 177.001h13c5.522 0 10-4.477 10-10s-4.478-10-10-10h-13c-5.523 0-10 4.477-10 10s4.477 10 10 10z"/><path id="XMLID_1257_" d="m215.127 177.001h13c5.522 0 10-4.477 10-10s-4.478-10-10-10h-13c-5.522 0-10 4.477-10 10s4.478 10 10 10z"/></g></g></svg>