<?xml version="1.0" encoding="iso-8859-1"?>
<!-- Generator: Adobe Illustrator 19.0.0, SVG Export Plug-In . SVG Version: 6.00 Build 0)  -->
<svg version="1.1" id="Capa_1" xmlns="http://www.w3.org/2000/svg" xmlns:xlink="http://www.w3.org/1999/xlink" x="0px" y="0px"
	 viewBox="0 0 480 480" style="enable-background:new 0 0 480 480;" xml:space="preserve">
<g>
	<g>
		<g>
			<path d="M392,176c4.418,0,8-3.582,8-8V40c-0.026-22.08-17.92-39.974-40-40H120C97.92,0.026,80.026,17.92,80,40v128
				c0,4.418,3.582,8,8,8h8v8h-8c-4.418,0-8,3.582-8,8v224c0.026,22.08,17.92,39.974,40,40v24h56v-24h128v24h56v-24
				c22.08-0.026,39.974-17.92,40-40V192c0-4.418-3.582-8-8-8h-8v-8H392z M160,464h-24v-8h24V464z M344,464h-24v-8h24V464z M384,416
				c0,13.255-10.745,24-24,24H120c-13.255,0-24-10.745-24-24V200h288V416z M112,184v-8h256v8H112z M96,160V40
				c0-13.255,10.745-24,24-24h240c13.255,0,24,10.745,24,24v120H96z"/>
			<path d="M120,72c-4.418,0-8,3.582-8,8v56c0,4.418,3.582,8,8,8s8-3.582,8-8V80C128,75.582,124.418,72,120,72z"/>
			<path d="M120,288c4.418,0,8-3.582,8-8v-56c0-4.418-3.582-8-8-8s-8,3.582-8,8v56C112,284.418,115.582,288,120,288z"/>
		</g>
	</g>
</g>
<g>
</g>
<g>
</g>
<g>
</g>
<g>
</g>
<g>
</g>
<g>
</g>
<g>
</g>
<g>
</g>
<g>
</g>
<g>
</g>
<g>
</g>
<g>
</g>
<g>
</g>
<g>
</g>
<g>
</g>
</svg>
