<svg width="31" height="49" viewBox="0 0 31 49" fill="none" xmlns="http://www.w3.org/2000/svg">
<path d="M3.5225 1.16403L1.16337 3.52238C0.387864 4.33964 0 5.29415 0 6.38372C0 7.49575 0.387864 8.43892 1.16337 9.21476L16.449 24.4999L1.16381 39.785C0.388304 40.5607 0.000441227 41.5041 0.000441227 42.6157C0.000441227 43.7058 0.388304 44.6601 1.16381 45.4775L3.52294 47.8049C4.31926 48.6018 5.27355 49 6.38493 49C7.51702 49 8.46051 48.6013 9.2152 47.805L29.6896 27.3308C30.486 26.5756 30.8845 25.6326 30.8845 24.5001C30.8845 23.3888 30.4861 22.4346 29.6896 21.6385L9.2152 1.16414C8.43925 0.388302 7.49586 0.000110626 6.38493 0.000110626C5.29426 0 4.34052 0.388191 3.5225 1.16403Z" fill="white"/>
</svg>
