<?xml version="1.0" encoding="iso-8859-1"?>
<!-- Generator: Adobe Illustrator 19.0.0, SVG Export Plug-In . SVG Version: 6.00 Build 0)  -->
<svg version="1.1" id="Layer_1" xmlns="http://www.w3.org/2000/svg" xmlns:xlink="http://www.w3.org/1999/xlink" x="0px" y="0px"
	 viewBox="0 0 512 512" style="enable-background:new 0 0 512 512;" xml:space="preserve">
<g>
	<g>
		<path d="M464.211,66.442H47.789C21.439,66.442,0,87.879,0,114.231v254.954c0,26.352,21.439,47.789,47.789,47.789h0.147v18.385
			c0,5.632,4.567,10.199,10.199,10.199h66.295c5.632,0,10.199-4.567,10.199-10.199v-18.385h242.741v18.385
			c0,5.632,4.567,10.199,10.199,10.199h66.295c5.632,0,10.199-4.567,10.199-10.199v-18.385h0.147
			c26.352,0,47.789-21.439,47.789-47.789V114.231C512,87.879,490.561,66.442,464.211,66.442z M114.231,425.16H68.335v-8.186h45.896
			V425.16z M443.665,425.16h-45.896v-8.186h45.896V425.16z M491.602,369.185c0,15.104-12.288,27.391-27.391,27.391H47.789
			c-15.103,0-27.391-12.288-27.391-27.391V114.231c0-15.104,12.288-27.391,27.391-27.391h416.42
			c15.104,0,27.392,12.287,27.392,27.391V369.185z"/>
	</g>
</g>
<g>
	<g>
		<path d="M383.49,111.024H54.056c-5.632,0-10.199,4.567-10.199,10.199V362.19c0,5.632,4.567,10.199,10.199,10.199H383.49
			c5.632,0,10.199-4.567,10.199-10.199V121.224C393.689,115.592,389.122,111.024,383.49,111.024z M373.291,351.991H97.793
			l40.989-40.989c3.983-3.983,3.983-10.441,0-14.425c-3.984-3.982-10.44-3.982-14.425,0l-55.413,55.413h-4.689v-59.275
			l66.367-66.367c3.983-3.983,3.983-10.441,0-14.425c-3.984-3.982-10.44-3.982-14.425,0l-51.943,51.944V131.423h309.036V351.991z"/>
	</g>
</g>
<g>
	<g>
		<path d="M443.665,113.064c-19.121,0-34.677,15.556-34.677,34.677s15.556,34.677,34.677,34.677s34.677-15.556,34.677-34.677
			S462.787,113.064,443.665,113.064z M443.665,162.02c-7.874,0-14.279-6.405-14.279-14.279s6.405-14.279,14.279-14.279
			s14.279,6.405,14.279,14.279S451.539,162.02,443.665,162.02z"/>
	</g>
</g>
<g>
	<g>
		<path d="M443.665,202.817c-19.121,0-34.677,15.556-34.677,34.677s15.556,34.677,34.677,34.677s34.677-15.556,34.677-34.677
			C478.343,218.373,462.787,202.817,443.665,202.817z M443.665,251.773c-7.874,0-14.279-6.405-14.279-14.279
			s6.405-14.279,14.279-14.279s14.279,6.405,14.279,14.279S451.539,251.773,443.665,251.773z"/>
	</g>
</g>
<g>
	<g>
		<path d="M168.869,266.489c-3.984-3.982-10.44-3.982-14.425,0l-4.59,4.59c-3.983,3.983-3.983,10.441,0,14.425
			c1.993,1.992,4.602,2.987,7.213,2.987c2.611,0,5.22-0.996,7.212-2.987l4.59-4.59C172.852,276.931,172.852,270.473,168.869,266.489
			z"/>
	</g>
</g>
<g>
	<g>
		<path d="M466.104,297.67h-46.916c-5.632,0-10.199,4.567-10.199,10.199c0,5.632,4.567,10.199,10.199,10.199h46.916
			c5.632,0,10.199-4.567,10.199-10.199C476.303,302.237,471.736,297.67,466.104,297.67z"/>
	</g>
</g>
<g>
	<g>
		<path d="M466.104,336.427h-46.916c-5.632,0-10.199,4.567-10.199,10.199s4.567,10.199,10.199,10.199h46.916
			c5.632,0,10.199-4.567,10.199-10.199S471.736,336.427,466.104,336.427z"/>
	</g>
</g>
<g>
</g>
<g>
</g>
<g>
</g>
<g>
</g>
<g>
</g>
<g>
</g>
<g>
</g>
<g>
</g>
<g>
</g>
<g>
</g>
<g>
</g>
<g>
</g>
<g>
</g>
<g>
</g>
<g>
</g>
</svg>
