<svg width="90" height="81" viewBox="0 0 90 81" fill="none" xmlns="http://www.w3.org/2000/svg">
<path d="M70.5 45C70.8978 45 71.2794 44.842 71.5607 44.5607C71.842 44.2794 72 43.8978 72 43.5V40.5C72 40.1022 71.842 39.7206 71.5607 39.4393C71.2794 39.158 70.8978 39 70.5 39C70.1022 39 69.7206 39.158 69.4393 39.4393C69.158 39.7206 69 40.1022 69 40.5V43.5C69 43.8978 69.158 44.2794 69.4393 44.5607C69.7206 44.842 70.1022 45 70.5 45Z" fill="black"/>
<path d="M70.5 54C70.1022 54 69.7206 54.158 69.4393 54.4393C69.158 54.7206 69 55.1022 69 55.5V58.5C69 58.8978 69.158 59.2794 69.4393 59.5607C69.7206 59.842 70.1022 60 70.5 60C70.8978 60 71.2794 59.842 71.5607 59.5607C71.842 59.2794 72 58.8978 72 58.5V55.5C72 55.1022 71.842 54.7206 71.5607 54.4393C71.2794 54.158 70.8978 54 70.5 54Z" fill="black"/>
<path d="M65.5611 80.5603C66.1662 80.8505 66.8289 81.0007 67.5 81H85.5C86.6931 80.9987 87.8369 80.5241 88.6805 79.6805C89.5241 78.8369 89.9986 77.6931 90 76.5V37.5C89.9986 36.3069 89.5241 35.1631 88.6805 34.3195C87.8369 33.4759 86.6931 33.0013 85.5 33H67.5C66.3069 33.0013 65.1631 33.4759 64.3195 34.3195C63.4759 35.1631 63.0013 36.3069 63 37.5V45H60V42C60 41.6022 59.842 41.2206 59.5607 40.9393C59.2794 40.658 58.8978 40.5 58.5 40.5H49.5C49.1022 40.5 48.7206 40.658 48.4393 40.9393C48.158 41.2206 48 41.6022 48 42V45H45V42C45.0002 41.8027 44.9614 41.6073 44.8858 41.4251C44.8102 41.2428 44.6992 41.0774 44.5594 40.9382C44.8496 40.3333 45.0002 39.6709 45 39H48C48.3978 39 48.7794 38.842 49.0607 38.5607C49.342 38.2794 49.5 37.8978 49.5 37.5C49.5 37.1022 49.342 36.7206 49.0607 36.4393C48.7794 36.158 48.3978 36 48 36H45C45 35.6022 44.842 35.2206 44.5607 34.9393C44.2794 34.658 43.8978 34.5 43.5 34.5H34.5C34.1022 34.5 33.7206 34.658 33.4393 34.9393C33.158 35.2206 33 35.6022 33 36V38.9968C32.9993 39.6688 33.1499 40.3323 33.4406 40.9382C33.3008 41.0774 33.1898 41.2428 33.1142 41.4251C33.0386 41.6073 32.9998 41.8027 33 42V45H25.5V42H27C27.3978 42 27.7794 41.842 28.0607 41.5607C28.342 41.2794 28.5 40.8978 28.5 40.5C28.5 40.1022 28.342 39.7206 28.0607 39.4393C27.7794 39.158 27.3978 39 27 39H25.5V37.5C25.5 36.3065 25.0259 35.1619 24.182 34.318C23.3381 33.4741 22.1935 33 21 33C19.8065 33 18.6619 33.4741 17.818 34.318C16.9741 35.1619 16.5 36.3065 16.5 37.5V40.5C16.5 40.8978 16.658 41.2794 16.9393 41.5607C17.2206 41.842 17.6022 42 18 42C18.3978 42 18.7794 41.842 19.0607 41.5607C19.342 41.2794 19.5 40.8978 19.5 40.5V37.5C19.5 37.1022 19.658 36.7206 19.9393 36.4393C20.2206 36.158 20.6022 36 21 36C21.3978 36 21.7794 36.158 22.0607 36.4393C22.342 36.7206 22.5 37.1022 22.5 37.5V45H10.5V42C10.5 40.8065 10.0259 39.6619 9.18198 38.818C8.33807 37.9741 7.19347 37.5 6 37.5C4.80653 37.5 3.66193 37.9741 2.81802 38.818C1.97411 39.6619 1.5 40.8065 1.5 42V45C1.10218 45 0.720644 45.158 0.43934 45.4393C0.158035 45.7206 0 46.1022 0 46.5V79.5C0 79.8978 0.158035 80.2794 0.43934 80.5607C0.720644 80.842 1.10218 81 1.5 81H64.5C64.6971 81.0003 64.8923 80.9616 65.0744 80.8861C65.2565 80.8106 65.4219 80.6999 65.5611 80.5603ZM85.5 78H67.5C67.1023 77.9995 66.721 77.8414 66.4398 77.5602C66.1586 77.279 66.0004 76.8977 66 76.5V51H87V76.5C86.9995 76.8977 86.8414 77.279 86.5602 77.5602C86.279 77.8414 85.8977 77.9995 85.5 78ZM66 37.5C66.0004 37.1023 66.1586 36.721 66.4398 36.4398C66.721 36.1586 67.1023 36.0004 67.5 36H85.5C85.8977 36.0004 86.279 36.1586 86.5602 36.4398C86.8414 36.721 86.9995 37.1023 87 37.5V48H66V37.5ZM57 48V54H36V48H57ZM36 57H57V72H36V57ZM51 43.5H57V45H51V43.5ZM36 45V43.5H42V45H36ZM36 37.5H42V38.9968C41.9995 39.3953 41.841 39.7774 41.5592 40.0592C41.2774 40.341 40.8953 40.4996 40.4968 40.5H37.5032C37.1047 40.4996 36.7226 40.341 36.4408 40.0592C36.159 39.7774 36.0004 39.3953 36 38.9968V37.5ZM4.5 42C4.5 41.6022 4.65804 41.2206 4.93934 40.9393C5.22064 40.658 5.60217 40.5 6 40.5C6.39782 40.5 6.77935 40.658 7.06066 40.9393C7.34196 41.2206 7.5 41.6022 7.5 42V45H4.5V42ZM63 78H3V48H33V73.5C33 73.8978 33.158 74.2794 33.4393 74.5607C33.7206 74.842 34.1022 75 34.5 75H58.5C58.8978 75 59.2794 74.842 59.5607 74.5607C59.842 74.2794 60 73.8978 60 73.5V48H63V78Z" fill="black"/>
<path d="M49.5 60H43.5C43.1022 60 42.7206 60.158 42.4393 60.4393C42.158 60.7206 42 61.1022 42 61.5C42 61.8978 42.158 62.2794 42.4393 62.5607C42.7206 62.842 43.1022 63 43.5 63H49.5C49.8978 63 50.2794 62.842 50.5607 62.5607C50.842 62.2794 51 61.8978 51 61.5C51 61.1022 50.842 60.7206 50.5607 60.4393C50.2794 60.158 49.8978 60 49.5 60Z" fill="black"/>
<path d="M28.499 63H7.49902C7.1012 63 6.71967 63.158 6.43836 63.4393C6.15706 63.7206 5.99902 64.1022 5.99902 64.5V73.5C5.99902 73.8978 6.15706 74.2794 6.43836 74.5607C6.71967 74.842 7.1012 75 7.49902 75H28.499C28.8968 75 29.2784 74.842 29.5597 74.5607C29.841 74.2794 29.999 73.8978 29.999 73.5V64.5C29.999 64.1022 29.841 63.7206 29.5597 63.4393C29.2784 63.158 28.8968 63 28.499 63ZM26.999 72H8.99902V66H26.999V72Z" fill="black"/>
<path d="M28.499 51H7.49902C7.1012 51 6.71967 51.158 6.43836 51.4393C6.15706 51.7206 5.99902 52.1022 5.99902 52.5V58.5C5.99902 58.8978 6.15706 59.2794 6.43836 59.5607C6.71967 59.842 7.1012 60 7.49902 60H28.499C28.8968 60 29.2784 59.842 29.5597 59.5607C29.841 59.2794 29.999 58.8978 29.999 58.5V52.5C29.999 52.1022 29.841 51.7206 29.5597 51.4393C29.2784 51.158 28.8968 51 28.499 51ZM26.999 57H8.99902V54H26.999V57Z" fill="black"/>
<path d="M56.999 12C57.3968 12 57.7784 11.842 58.0597 11.5607C58.341 11.2794 58.499 10.8978 58.499 10.5V7.5C58.499 7.10218 58.341 6.72064 58.0597 6.43934C57.7784 6.15804 57.3968 6 56.999 6C56.6012 6 56.2197 6.15804 55.9384 6.43934C55.6571 6.72064 55.499 7.10218 55.499 7.5V10.5C55.499 10.8978 55.6571 11.2794 55.9384 11.5607C56.2197 11.842 56.6012 12 56.999 12Z" fill="black"/>
<path d="M74.999 12C75.3968 12 75.7784 11.842 76.0597 11.5607C76.341 11.2794 76.499 10.8978 76.499 10.5V7.5C76.499 7.10218 76.341 6.72064 76.0597 6.43934C75.7784 6.15804 75.3968 6 74.999 6C74.6012 6 74.2197 6.15804 73.9384 6.43934C73.6571 6.72064 73.499 7.10218 73.499 7.5V10.5C73.499 10.8978 73.6571 11.2794 73.9384 11.5607C74.2197 11.842 74.6012 12 74.999 12Z" fill="black"/>
<path d="M1.5 9H15V15H13.5C13.2214 15 12.9484 15.0776 12.7115 15.224C12.4745 15.3705 12.283 15.58 12.1584 15.8291L7.65844 24.8291C7.54408 25.0578 7.49008 25.3119 7.50156 25.5674C7.51305 25.8228 7.58963 26.071 7.72404 26.2885C7.85846 26.5061 8.04624 26.6856 8.26956 26.8101C8.49287 26.9346 8.74431 27 9 27H24C24.2557 27 24.5071 26.9346 24.7304 26.8101C24.9538 26.6856 25.1415 26.5061 25.276 26.2885C25.4104 26.071 25.4869 25.8228 25.4984 25.5674C25.5099 25.3119 25.4559 25.0578 25.3416 24.8291L20.8416 15.8291C20.717 15.58 20.5255 15.3705 20.2885 15.224C20.0516 15.0776 19.7785 15 19.5 15H18V9H37.5V15H36C35.7214 15 35.4484 15.0776 35.2115 15.224C34.9745 15.3705 34.783 15.58 34.6584 15.8291L30.1584 24.8291C30.0441 25.0578 29.9901 25.3119 30.0016 25.5674C30.013 25.8228 30.0896 26.071 30.224 26.2885C30.3585 26.5061 30.5462 26.6856 30.7696 26.8101C30.9929 26.9346 31.2443 27 31.5 27H46.5C46.7557 27 47.0071 26.9346 47.2304 26.8101C47.4538 26.6856 47.6415 26.5061 47.776 26.2885C47.9104 26.071 47.9869 25.8228 47.9984 25.5674C48.0099 25.3119 47.9559 25.0578 47.8416 24.8291L43.3416 15.8291C43.217 15.58 43.0255 15.3705 42.7885 15.224C42.5516 15.0776 42.2785 15 42 15H40.5V9H51V21C51 21.3978 51.158 21.7794 51.4393 22.0607C51.7206 22.342 52.1022 22.5 52.5 22.5H88.5C88.8978 22.5 89.2794 22.342 89.5607 22.0607C89.842 21.7794 90 21.3978 90 21V1.5C90 1.10218 89.842 0.720645 89.5607 0.43934C89.2794 0.158036 88.8978 0 88.5 0H1.5C1.10218 0 0.720644 0.158036 0.43934 0.43934C0.158035 0.720645 0 1.10218 0 1.5V7.5C0 7.89782 0.158035 8.27936 0.43934 8.56066C0.720644 8.84196 1.10218 9 1.5 9ZM21.573 24H11.427L14.427 18H18.573L21.573 24ZM44.073 24H33.927L36.927 18H41.073L44.073 24ZM54 3H67.5V15H54V3ZM87 19.5H54V18H87V19.5ZM87 15H70.5V3H87V15ZM3 3H51V6H3V3Z" fill="black"/>
<path d="M40.501 52.5C41.3294 52.5 42.001 51.8284 42.001 51C42.001 50.1716 41.3294 49.5 40.501 49.5C39.6725 49.5 39.001 50.1716 39.001 51C39.001 51.8284 39.6725 52.5 40.501 52.5Z" fill="black"/>
<path d="M46.5 52.5C47.3284 52.5 48 51.8284 48 51C48 50.1716 47.3284 49.5 46.5 49.5C45.6716 49.5 45 50.1716 45 51C45 51.8284 45.6716 52.5 46.5 52.5Z" fill="black"/>
<path d="M52.499 52.5C53.3275 52.5 53.999 51.8284 53.999 51C53.999 50.1716 53.3275 49.5 52.499 49.5C51.6706 49.5 50.999 50.1716 50.999 51C50.999 51.8284 51.6706 52.5 52.499 52.5Z" fill="black"/>
</svg>
