<svg width="92" height="92" viewBox="0 0 92 92" fill="none" xmlns="http://www.w3.org/2000/svg">
<g clip-path="url(#clip0)">
<path d="M78.3438 71.1553C79.3361 71.1553 80.1406 70.3508 80.1406 69.3584C80.1406 68.366 79.3361 67.5615 78.3438 67.5615C77.3514 67.5615 76.5469 68.366 76.5469 69.3584C76.5469 70.3508 77.3514 71.1553 78.3438 71.1553Z" fill="black"/>
<path d="M80.1407 39.976C80.1407 20.2075 65.8411 3.28016 46.295 0.0229155C46.1169 -0.00673344 45.893 -0.00853034 45.7043 0.0229155C26.2047 3.27244 11.8584 20.1601 11.8584 39.976V90.203C11.8584 91.1933 12.6693 91.9999 13.6553 91.9999H78.3438H78.344H78.3442C79.3312 91.9999 80.1407 91.1938 80.1407 90.203V77.445C80.1407 76.4526 79.3361 75.6481 78.3438 75.6481C77.3516 75.6481 76.5469 76.4526 76.5469 77.445V85.659L62.305 70.4676L76.5469 50.5285V61.2727C76.5469 62.2651 77.3516 63.0696 78.3438 63.0696C79.3361 63.0696 80.1407 62.2651 80.1407 61.2727V39.976ZM58.4474 43.1242C57.7538 38.2979 54.3118 34.3475 49.7623 32.9181L59.6664 23.0139L74.75 43.1242H58.4474ZM57.4882 20.1096L45.9996 31.5985L34.5103 20.1092L45.9996 4.79028L57.4882 20.1096ZM32.3321 23.0134L42.2368 32.9181C37.6871 34.3475 34.2453 38.2977 33.5517 43.1242H17.2489L32.3321 23.0134ZM33.5515 46.718C34.2512 51.5869 37.7484 55.5627 42.3576 56.9598L32.201 67.7937L17.1469 46.718H33.5515ZM29.6945 70.4673L15.4522 85.659V50.5283L29.6945 70.4673ZM31.8247 73.4496L42.508 88.4061H17.8029L31.8247 73.4496ZM45.9996 87.1115L34.3312 70.7758L45.9996 58.3296L57.6679 70.7758L45.9996 87.1115ZM60.1748 73.45L74.1962 88.406H49.4913L60.1748 73.45ZM45.9996 53.9056C41.0455 53.9056 37.015 49.8751 37.015 44.9211C37.015 39.967 41.0455 35.9365 45.9996 35.9365C50.9536 35.9365 54.9841 39.967 54.9841 44.9211C54.9841 49.8751 50.9536 53.9056 45.9996 53.9056ZM76.5419 39.5237C76.512 39.484 50.8846 5.31408 50.3975 4.66468C65.6609 9.28002 76.3473 23.2276 76.5419 39.5237ZM41.6013 4.66486L15.4572 39.5235C15.6518 23.2276 26.338 9.2802 41.6013 4.66486ZM49.6413 56.9598C54.2506 55.5627 57.7477 51.5867 58.4474 46.718H74.8521L59.7981 67.7935L49.6413 56.9598Z" fill="black"/>
</g>
<defs>
<clipPath id="clip0">
<rect width="92" height="92" fill="white"/>
</clipPath>
</defs>
</svg>
