<svg id="Capa_1" enable-background="new 0 0 511.992 511.992" height="512" viewBox="0 0 511.992 511.992" width="512" xmlns="http://www.w3.org/2000/svg"><g><circle cx="435.995" cy="385.991" r="10"/><path d="m445.996 222.472c0-110.014-79.579-204.217-188.356-222.344-.991-.165-2.237-.175-3.287 0-108.518 18.084-188.357 112.066-188.357 222.344v279.52c0 5.511 4.513 10 10 10h360 .001s.001 0 .001 0c5.493 0 9.998-4.486 9.998-10v-71c0-5.523-4.478-10-10-10s-10 4.477-10 10v45.712l-79.258-84.542 79.258-110.964v59.793c0 5.523 4.478 10 10 10s10-4.477 10-10zm-120.726 17.52c-3.86-26.859-23.015-48.843-48.334-56.798l55.118-55.118 83.942 111.916zm-5.338-128.079-63.936 63.937-63.939-63.939 63.939-85.252zm-139.997 16.16 55.121 55.121c-25.32 7.955-44.474 29.938-48.334 56.798h-90.727zm6.786 131.919c3.894 27.096 23.356 49.222 49.007 56.997l-56.523 60.292-83.778-117.289zm-21.465 132.168-79.26 84.544v-195.507zm11.855 16.597 59.454 83.235h-137.487zm78.885 76.03-64.936-90.91 64.936-69.265 64.936 69.265zm78.887-76.028 78.031 83.232h-137.486zm-78.887-108.767c-27.57 0-50-22.43-50-50s22.43-50 50-50 50 22.43 50 50-22.43 50-50 50zm169.972-80.037c-.166-.221-142.786-190.381-145.497-193.995 84.943 25.685 144.414 103.305 145.497 193.995zm-194.449-193.994-145.495 193.993c1.083-90.689 60.553-168.308 145.495-193.993zm44.744 291.028c25.651-7.775 45.113-29.902 49.007-56.997h91.294l-83.777 117.288z"/></g></svg>