<?xml version="1.0" encoding="iso-8859-1"?>
<!-- Generator: Adobe Illustrator 19.0.0, SVG Export Plug-In . SVG Version: 6.00 Build 0)  -->
<svg version="1.1" id="Capa_1" xmlns="http://www.w3.org/2000/svg" xmlns:xlink="http://www.w3.org/1999/xlink" x="0px" y="0px"
	 viewBox="0 0 512 512" style="enable-background:new 0 0 512 512;" xml:space="preserve">
<g>
	<g>
		<g>
			<path d="M204.8,426.667h-68.267c-4.71,0-8.533,3.823-8.533,8.533s3.823,8.533,8.533,8.533h25.6v8.533
				c0,4.71,3.823,8.533,8.533,8.533c4.71,0,8.533-3.823,8.533-8.533v-8.533h25.6c4.71,0,8.533-3.823,8.533-8.533
				S209.51,426.667,204.8,426.667z"/>
			<path d="M332.8,366.933h68.267c4.71,0,8.533-3.823,8.533-8.533s-3.823-8.533-8.533-8.533H332.8c-4.71,0-8.533,3.823-8.533,8.533
				S328.09,366.933,332.8,366.933z"/>
			<path d="M332.8,435.2h68.267c4.71,0,8.533-3.823,8.533-8.533s-3.823-8.533-8.533-8.533H332.8c-4.71,0-8.533,3.823-8.533,8.533
				S328.09,435.2,332.8,435.2z"/>
			<path d="M119.467,153.6h-25.6c-4.71,0-8.533,3.823-8.533,8.533c0,4.71,3.823,8.533,8.533,8.533h17.067v17.067
				c0,4.71,3.823,8.533,8.533,8.533s8.533-3.823,8.533-8.533v-25.6C128,157.423,124.177,153.6,119.467,153.6z"/>
			<path d="M221.867,196.267c4.71,0,8.533-3.823,8.533-8.533v-17.067h17.067c4.71,0,8.533-3.823,8.533-8.533
				c0-4.71-3.823-8.533-8.533-8.533h-25.6c-4.71,0-8.533,3.823-8.533,8.533v25.6C213.333,192.444,217.156,196.267,221.867,196.267z"
				/>
			<path d="M477.867,281.6H315.733V38.579C315.733,17.306,298.428,0,277.154,0H170.667H64.179C42.906,0,25.6,17.306,25.6,38.579V384
				v119.467c0,4.71,3.823,8.533,8.533,8.533h256h25.6c3.49,0,6.622-2.125,7.927-5.359l14.923-37.308h56.701l14.923,37.308
				c1.297,3.234,4.437,5.359,7.927,5.359h25.6c4.71,0,8.533-3.823,8.533-8.533v-34.133h8.532c4.71,0,8.533-3.823,8.533-8.533
				v-68.267V332.8h8.533c4.71,0,8.533-3.823,8.533-8.533v-34.133C486.4,285.423,482.577,281.6,477.867,281.6z M298.667,38.579V281.6
				H256c-4.71,0-8.533,3.823-8.533,8.533v34.133c0,4.71,3.823,8.533,8.533,8.533h8.533v42.667H179.2v-358.4h97.954
				C289.015,17.067,298.667,26.718,298.667,38.579z M452.267,452.267h-8.532h-42.667H332.8h-42.667H281.6v-51.2h170.667V452.267z
				 M42.667,38.579c0-11.861,9.651-21.513,21.513-21.513h97.954v358.4H42.667V38.579z M42.667,392.533h128h93.867V460.8
				c0,4.71,3.823,8.533,8.533,8.533h8.533v25.6H42.667V392.533z M309.956,494.933h-11.29v-25.6h21.53L309.956,494.933z
				 M435.202,494.933h-11.29l-10.24-25.6h21.53V494.933z M452.267,384H281.6v-51.2h170.667V384z M469.333,315.733H460.8H273.067
				h-8.533v-17.067h204.8V315.733z"/>
		</g>
	</g>
</g>
<g>
</g>
<g>
</g>
<g>
</g>
<g>
</g>
<g>
</g>
<g>
</g>
<g>
</g>
<g>
</g>
<g>
</g>
<g>
</g>
<g>
</g>
<g>
</g>
<g>
</g>
<g>
</g>
<g>
</g>
</svg>
